<svg width="16" height="16" viewBox="0 0 16 16" fill="none" xmlns="http://www.w3.org/2000/svg">
<path d="M7.3333 2.33677C6.37996 2.58344 5.64329 3.32677 5.39996 4.2801C5.30662 4.64344 5.30662 5.22343 5.39996 5.58677C5.59329 6.34677 6.09662 6.97677 6.78329 7.31676C7.20329 7.52676 7.51996 7.6001 7.99996 7.6001C8.47997 7.6001 8.79663 7.52676 9.21663 7.31676C9.89664 6.9801 10.4133 6.33343 10.6 5.58677C10.6933 5.22343 10.69 4.64344 10.6 4.2801C10.3566 3.3201 9.6133 2.57677 8.6533 2.33344C8.29663 2.24344 7.68663 2.24344 7.3333 2.33677Z" fill="#4A90AA"/>
<path d="M2.57992 3.96017C2.01659 4.15683 1.62325 4.55017 1.42659 5.1135C1.34659 5.3435 1.33325 5.43683 1.33325 5.7335C1.33325 6.29683 1.50325 6.7035 1.90325 7.0935C2.09325 7.28016 2.41659 7.4635 2.69659 7.54683C2.98992 7.6335 3.48326 7.62016 3.78993 7.51683C4.36326 7.3235 4.77326 6.92016 4.97326 6.3535C5.1566 5.82683 5.08326 5.18017 4.7866 4.7235C4.6466 4.5035 4.42993 4.28683 4.20993 4.14683C3.75326 3.85017 3.10659 3.77683 2.57992 3.96017Z" fill="#4A90AA"/>
<path d="M12.18 3.96017C11.6167 4.15683 11.2234 4.55017 11.0267 5.1135C10.9467 5.3435 10.9333 5.43683 10.9333 5.7335C10.9333 6.29683 11.1034 6.7035 11.5034 7.0935C11.6934 7.28016 12.0167 7.4635 12.2967 7.54683C12.59 7.6335 13.0834 7.62016 13.39 7.51683C13.9634 7.3235 14.3734 6.92016 14.5734 6.3535C14.6534 6.1235 14.6667 6.03016 14.6667 5.7335C14.6667 5.43683 14.6534 5.3435 14.5734 5.1135C14.3767 4.5535 13.98 4.15683 13.42 3.96017C13.19 3.88017 13.0967 3.86683 12.8 3.86683C12.5034 3.86683 12.41 3.88017 12.18 3.96017Z" fill="#4A90AA"/>
<path d="M0.646669 7.44004C0.393335 7.71004 0.173334 8.1267 0.0666669 8.5467C0.00666669 8.78004 0 8.9167 0 9.68337C0 10.38 0.01 10.59 0.0533335 10.7367C0.196667 11.23 0.613335 11.65 1.10334 11.8034C1.27334 11.8567 1.41334 11.8667 1.98001 11.8667H2.65667L2.67667 10.84C2.69668 9.75004 2.73334 9.4167 2.88668 8.93337C2.98334 8.62337 2.98334 8.63337 2.88001 8.63337C2.73668 8.63337 2.33667 8.53004 2.09667 8.43337C1.65667 8.25004 1.16334 7.8667 0.846669 7.4567L0.750002 7.33004L0.646669 7.44004Z" fill="#4A90AA"/>
<path d="M4.86328 7.57667C4.28661 8.14334 3.92994 8.80334 3.78328 9.57667C3.70661 9.97334 3.70994 12.6067 3.78661 12.87C3.92994 13.3633 4.34661 13.7833 4.83661 13.9367C5.02995 13.9967 5.18662 14 7.99662 14C10.6 14 10.9766 13.9933 11.1366 13.9467C11.63 13.8033 12.05 13.3867 12.2033 12.8967C12.26 12.71 12.2666 12.5733 12.2666 11.2667C12.2666 9.73001 12.2533 9.56334 12.0833 9.06667C11.9666 8.72667 11.75 8.31001 11.5533 8.04334C11.37 7.80334 10.9133 7.33334 10.8566 7.33334C10.8366 7.33334 10.7733 7.39001 10.7133 7.46001C10.4233 7.80334 9.78996 8.22334 9.30663 8.40001C8.24329 8.79001 7.05662 8.69001 6.12995 8.13334C5.82328 7.94667 5.44662 7.64668 5.28662 7.46001C5.22662 7.39001 5.16328 7.33334 5.14328 7.33334C5.12328 7.33334 4.99995 7.44334 4.86328 7.57667Z" fill="#4A90AA"/>
<path d="M15.1 7.5167C14.8067 7.8967 14.3433 8.25004 13.9033 8.43337C13.6633 8.53004 13.2633 8.63337 13.12 8.63337C13.0166 8.63337 13.0166 8.62337 13.1133 8.93337C13.2666 9.4167 13.3033 9.75004 13.3233 10.84L13.3433 11.8667H14.02C14.5867 11.8667 14.7267 11.8567 14.8967 11.8034C15.3867 11.65 15.8033 11.23 15.9467 10.7367C15.99 10.59 16 10.38 16 9.68337C16 8.9167 15.9933 8.78004 15.9333 8.5467C15.8233 8.1267 15.5567 7.62004 15.3267 7.4067L15.2433 7.33004L15.1 7.5167Z" fill="#4A90AA"/>
</svg>
