<svg width="16" height="16" viewBox="0 0 16 16" fill="none" xmlns="http://www.w3.org/2000/svg">
<path d="M11.4239 1.62531C11.0695 1.66156 10.6869 1.77589 10.3213 1.95713C10.0147 2.10491 9.60965 2.37538 9.58434 2.44509C9.57871 2.46182 9.66591 2.49807 9.77842 2.52595C9.89093 2.55384 10.0991 2.63749 10.2369 2.70999L10.4901 2.83825L10.7432 2.71835C11.1342 2.53432 11.3761 2.48134 11.8261 2.48134C12.1243 2.48134 12.2537 2.49249 12.4309 2.5399C12.6784 2.60403 13.0497 2.77133 13.2438 2.90238C13.6994 3.21468 14.0566 3.69707 14.231 4.24358C14.3267 4.53636 14.3576 5.08009 14.3014 5.39797C14.0904 6.57744 13.044 7.4502 11.8374 7.4502C11.1932 7.4502 10.6588 7.25501 10.1722 6.83955C9.93312 6.636 9.89093 6.61369 9.72498 6.61369C9.54777 6.61369 9.41838 6.69177 9.35088 6.84513C9.24399 7.07377 9.29181 7.22434 9.53652 7.44741C10.0091 7.87403 10.6026 8.16402 11.2326 8.27277C11.5336 8.32574 12.1186 8.32574 12.4196 8.27277C13.1059 8.15565 13.7079 7.84336 14.217 7.33866C14.7317 6.83118 15.0411 6.24563 15.1621 5.55133C15.2296 5.15817 15.2043 4.48896 15.1086 4.12368C14.9595 3.56601 14.698 3.09199 14.3014 2.67374C13.7304 2.06866 13.0187 1.71733 12.1833 1.62531C11.8824 1.59185 11.7445 1.59185 11.4239 1.62531Z" fill="#4A90AA"/>
<path d="M2.01798 3.28151C1.46949 3.39862 1.03632 3.78621 0.870368 4.30763L0.800049 4.52512V5.75758C0.800049 7.11272 0.802862 7.1406 0.974441 7.47521C1.09539 7.71222 1.35698 7.96875 1.60731 8.0998C1.95891 8.28383 1.99548 8.28662 3.6297 8.28662H5.09234V7.79029C5.08953 7.25772 5.12609 7.00676 5.26392 6.57457C5.63239 5.42019 6.58311 4.47214 7.75603 4.09293C8.59143 3.82246 9.54777 3.85592 10.3832 4.18773C10.5013 4.23513 10.6026 4.2658 10.6082 4.26023C10.6166 4.25465 10.5744 4.15985 10.5182 4.0511C10.3185 3.67188 9.91062 3.37353 9.47745 3.28151C9.19899 3.22296 2.29082 3.22296 2.01798 3.28151Z" fill="#4A90AA"/>
<path d="M8.40846 4.76175C7.64057 4.89559 6.95988 5.31384 6.48171 5.9468C5.96697 6.63274 5.77289 7.57799 5.97823 8.42565L6.03448 8.65988L4.29338 10.3914C3.33422 11.3423 2.54383 12.1425 2.53258 12.1732C2.49883 12.2736 2.2063 13.9048 2.2063 14.0024C2.2063 14.1028 2.29068 14.2673 2.37225 14.3286C2.50727 14.4346 2.59165 14.429 3.50299 14.2673C3.98397 14.1808 4.41151 14.0972 4.4537 14.0832C4.5859 14.033 4.66466 13.9271 4.86437 13.5284C4.97125 13.3137 5.07251 13.138 5.08939 13.138C5.10345 13.138 5.23003 13.1017 5.36504 13.0571C5.69414 12.9512 5.75883 12.887 5.85165 12.5803C5.89103 12.4493 5.93885 12.3294 5.95854 12.3098C5.97541 12.2931 6.09918 12.2457 6.23419 12.2039C6.54641 12.1119 6.61954 12.0366 6.72361 11.6936L6.79674 11.4454L7.05552 11.3702L7.31148 11.2921L7.66308 10.9519L8.01467 10.6117L8.21157 10.6647C8.49847 10.7428 9.17072 10.7623 9.49982 10.701C10.1102 10.5866 10.6052 10.3301 11.0609 9.89233C11.2634 9.69993 11.6291 9.22034 11.6291 9.15341C11.6291 9.13947 11.5306 9.12274 11.4125 9.11159C10.5771 9.0363 9.7614 8.68776 9.07509 8.11057C8.9457 8.00461 8.791 7.84567 8.73193 7.76202C8.35502 7.2406 8.4169 6.57976 8.88663 6.14198C9.11728 5.92449 9.35918 5.82411 9.67421 5.81017C10.068 5.79344 10.2986 5.88546 10.6671 6.20333C10.9625 6.45986 11.3816 6.63831 11.6797 6.6411C11.7641 6.6411 11.7725 6.63552 11.7557 6.57697C11.7163 6.4487 11.5081 6.09179 11.3591 5.89661C10.6756 5.00991 9.52232 4.56656 8.40846 4.76175Z" fill="#4A90AA"/>
</svg>
