<svg width="70" height="29" viewBox="0 0 70 29" fill="none" xmlns="http://www.w3.org/2000/svg">
<g clip-path="url(#clip0_40_1299)">
<path d="M35.3216 6.78098C37.182 6.78098 38.6902 5.26301 38.6902 3.39049C38.6902 1.51798 37.182 0 35.3216 0C33.4613 0 31.9531 1.51798 31.9531 3.39049C31.9531 5.26301 33.4613 6.78098 35.3216 6.78098Z" fill="#4A90AA"/>
<path d="M35.2399 28.2274H21.7324L20.955 26.3344L26.9064 20.3358L18.389 11.99L1.56306 28.2274L0 26.3344L24.357 2.60938H25.9117L35.2399 11.99L44.5598 2.60938H46.1228L69.6941 26.3344L68.1311 28.2274L52.0742 11.99L43.5317 20.3358L49.483 26.3344L48.7056 28.2274H35.2399ZM37.898 26.0063H46.0476L41.9686 21.8755L37.898 26.0063ZM24.4322 26.0063H32.5986L28.5029 21.8755L24.4322 26.0063ZM30.091 20.3358L35.2733 26.0063L40.4473 20.3358L35.2399 15.1449L30.091 20.3358ZM36.8281 13.6053L42.002 18.8131L50.5111 10.1728L45.3371 4.96505L36.8281 13.6053ZM19.9938 10.2401L28.5029 18.771L33.6769 13.5633L25.1344 4.96505L19.9938 10.2401Z" fill="#4A90AA"/>
</g>
<defs>
<clipPath id="clip0_40_1299">
<rect width="69.6941" height="28.2261" fill="white"/>
</clipPath>
</defs>
</svg>
